<svg width="168" height="26" viewBox="0 0 168 26" fill="none" xmlns="http://www.w3.org/2000/svg">
<path d="M5.98999 21.04H12.71V25H0.859985V3.94001H5.98999V21.04Z" fill="black"/>
<path d="M20.6769 8.26001V25H15.5469V8.26001H20.6769ZM21.6069 4.09001L14.3769 7.12001V3.58001L21.6069 0.100006V4.09001Z" fill="black"/>
<path d="M29.9255 2.80001V25H24.7955V2.80001H29.9255Z" fill="black"/>
<path d="M38.7732 2.80001V25H33.6432V2.80001H38.7732Z" fill="black"/>
<path d="M45.0708 6.52001C44.1708 6.52001 43.4308 6.26001 42.8508 5.74001C42.2908 5.20001 42.0108 4.54001 42.0108 3.76001C42.0108 2.96001 42.2908 2.30001 42.8508 1.78001C43.4308 1.24001 44.1708 0.970006 45.0708 0.970006C45.9508 0.970006 46.6708 1.24001 47.2308 1.78001C47.8108 2.30001 48.1008 2.96001 48.1008 3.76001C48.1008 4.54001 47.8108 5.20001 47.2308 5.74001C46.6708 6.26001 45.9508 6.52001 45.0708 6.52001ZM47.6208 8.26001V25H42.4908V8.26001H47.6208Z" fill="black"/>
<path d="M50.3185 16.6C50.3185 14.88 50.6385 13.37 51.2785 12.07C51.9385 10.77 52.8285 9.77001 53.9485 9.07001C55.0685 8.37001 56.3185 8.02001 57.6985 8.02001C58.8785 8.02001 59.9085 8.26001 60.7885 8.74001C61.6885 9.22001 62.3785 9.85001 62.8585 10.63V8.26001H67.9885V25H62.8585V22.63C62.3585 23.41 61.6585 24.04 60.7585 24.52C59.8785 25 58.8485 25.24 57.6685 25.24C56.3085 25.24 55.0685 24.89 53.9485 24.19C52.8285 23.47 51.9385 22.46 51.2785 21.16C50.6385 19.84 50.3185 18.32 50.3185 16.6ZM62.8585 16.63C62.8585 15.35 62.4985 14.34 61.7785 13.6C61.0785 12.86 60.2185 12.49 59.1985 12.49C58.1785 12.49 57.3085 12.86 56.5885 13.6C55.8885 14.32 55.5385 15.32 55.5385 16.6C55.5385 17.88 55.8885 18.9 56.5885 19.66C57.3085 20.4 58.1785 20.77 59.1985 20.77C60.2185 20.77 61.0785 20.4 61.7785 19.66C62.4985 18.92 62.8585 17.91 62.8585 16.63Z" fill="black"/>
<path d="M81.8998 8.08001C83.8598 8.08001 85.4198 8.72001 86.5798 10C87.7598 11.26 88.3498 13 88.3498 15.22V25H83.2498V15.91C83.2498 14.79 82.9598 13.92 82.3798 13.3C81.7998 12.68 81.0198 12.37 80.0398 12.37C79.0598 12.37 78.2798 12.68 77.6998 13.3C77.1198 13.92 76.8298 14.79 76.8298 15.91V25H71.6998V8.26001H76.8298V10.48C77.3498 9.74001 78.0498 9.16001 78.9298 8.74001C79.8098 8.30001 80.7998 8.08001 81.8998 8.08001Z" fill="black"/>
<path d="M103.402 21.04H110.122V25H98.2721V3.94001H103.402V21.04Z" fill="black"/>
<path d="M128.349 16.36C128.349 16.84 128.319 17.34 128.259 17.86H116.649C116.729 18.9 117.059 19.7 117.639 20.26C118.239 20.8 118.969 21.07 119.829 21.07C121.109 21.07 121.999 20.53 122.499 19.45H127.959C127.679 20.55 127.169 21.54 126.429 22.42C125.709 23.3 124.799 23.99 123.699 24.49C122.599 24.99 121.369 25.24 120.009 25.24C118.369 25.24 116.909 24.89 115.629 24.19C114.349 23.49 113.349 22.49 112.629 21.19C111.909 19.89 111.549 18.37 111.549 16.63C111.549 14.89 111.899 13.37 112.599 12.07C113.319 10.77 114.319 9.77001 115.599 9.07001C116.879 8.37001 118.349 8.02001 120.009 8.02001C121.629 8.02001 123.069 8.36001 124.329 9.04001C125.589 9.72001 126.569 10.69 127.269 11.95C127.989 13.21 128.349 14.68 128.349 16.36ZM123.099 15.01C123.099 14.13 122.799 13.43 122.199 12.91C121.599 12.39 120.849 12.13 119.949 12.13C119.089 12.13 118.359 12.38 117.759 12.88C117.179 13.38 116.819 14.09 116.679 15.01H123.099Z" fill="black"/>
<path d="M133.635 6.52001C132.735 6.52001 131.995 6.26001 131.415 5.74001C130.855 5.20001 130.575 4.54001 130.575 3.76001C130.575 2.96001 130.855 2.30001 131.415 1.78001C131.995 1.24001 132.735 0.970006 133.635 0.970006C134.515 0.970006 135.235 1.24001 135.795 1.78001C136.375 2.30001 136.665 2.96001 136.665 3.76001C136.665 4.54001 136.375 5.20001 135.795 5.74001C135.235 6.26001 134.515 6.52001 133.635 6.52001ZM136.185 8.26001V25H131.055V8.26001H136.185Z" fill="black"/>
<path d="M149.233 20.65V25H146.623C144.763 25 143.313 24.55 142.273 23.65C141.233 22.73 140.713 21.24 140.713 19.18V12.52H138.673V8.26001H140.713V4.18001H145.843V8.26001H149.203V12.52H145.843V19.24C145.843 19.74 145.963 20.1 146.203 20.32C146.443 20.54 146.843 20.65 147.403 20.65H149.233Z" fill="black"/>
<path d="M167.87 16.36C167.87 16.84 167.84 17.34 167.78 17.86H156.17C156.25 18.9 156.58 19.7 157.16 20.26C157.76 20.8 158.49 21.07 159.35 21.07C160.63 21.07 161.52 20.53 162.02 19.45H167.48C167.2 20.55 166.69 21.54 165.95 22.42C165.23 23.3 164.32 23.99 163.22 24.49C162.12 24.99 160.89 25.24 159.53 25.24C157.89 25.24 156.43 24.89 155.15 24.19C153.87 23.49 152.87 22.49 152.15 21.19C151.43 19.89 151.07 18.37 151.07 16.63C151.07 14.89 151.42 13.37 152.12 12.07C152.84 10.77 153.84 9.77001 155.12 9.07001C156.4 8.37001 157.87 8.02001 159.53 8.02001C161.15 8.02001 162.59 8.36001 163.85 9.04001C165.11 9.72001 166.09 10.69 166.79 11.95C167.51 13.21 167.87 14.68 167.87 16.36ZM162.62 15.01C162.62 14.13 162.32 13.43 161.72 12.91C161.12 12.39 160.37 12.13 159.47 12.13C158.61 12.13 157.88 12.38 157.28 12.88C156.7 13.38 156.34 14.09 156.2 15.01H162.62Z" fill="black"/>
</svg>
